<?xml version="1.0" standalone="no"?>
<!DOCTYPE svg PUBLIC "-//W3C//DTD SVG 20010904//EN"
 "http://www.w3.org/TR/2001/REC-SVG-20010904/DTD/svg10.dtd">
<svg version="1.0" xmlns="http://www.w3.org/2000/svg"
 width="260.000000pt" height="260.000000pt" viewBox="0 0 260.000000 260.000000"
 preserveAspectRatio="xMidYMid meet">
<metadata>
Created by potrace 1.11, written by Peter Selinger 2001-2013
</metadata>
<g transform="translate(0.000000,260.000000) scale(0.100000,-0.100000)"
fill="#000000" stroke="none">
<path d="M368 1815 c-2 -1 -29 -5 -62 -9 -57 -6 -108 -17 -171 -37 l-31 -9 1
-115 c0 -63 4 -115 8 -115 4 0 20 6 35 14 85 43 332 70 404 43 68 -25 94 -55
103 -120 7 -51 7 -51 -45 -37 -65 17 -95 20 -187 20 -202 0 -336 -67 -397
-199 -16 -36 -20 -66 -20 -141 0 -112 18 -162 84 -233 62 -68 116 -90 230 -93
151 -5 248 26 329 103 24 24 46 43 47 43 1 0 5 -17 8 -37 4 -21 9 -50 12 -64
l5 -27 97 2 97 1 1 335 c0 418 -11 484 -98 569 -79 78 -191 113 -354 110 -51
-1 -95 -3 -96 -4z m255 -571 l38 -18 -4 -65 c-4 -62 -5 -66 -47 -104 -143
-126 -340 -89 -340 65 0 52 31 100 81 126 39 20 55 22 139 19 65 -3 107 -10
133 -23z"/>
<path d="M1180 1704 c0 -46 -1 -212 -1 -369 0 -157 1 -341 1 -409 l0 -123 710
0 710 0 0 492 0 492 -132 -1 -133 -1 -5 -385 -5 -385 -147 0 c-93 0 -148 3
-149 10 -1 5 -2 179 -3 385 l-1 375 -120 1 c-66 1 -127 0 -136 -2 -14 -4 -15
-45 -14 -377 0 -204 -1 -377 -2 -382 -3 -8 -250 -13 -295 -6 -5 0 -8 173 -8
384 l0 383 -135 1 -135 0 0 -83z"/>
</g>
</svg>
